<?xml version="1.0"?>
<!--Icons from directory ""-->
<svg xmlns="http://www.w3.org/2000/svg" width="126" height="177" viewBox="0 0 126 177"><svg xmlns:xlink="http://www.w3.org/1999/xlink" id="fb" xml:space="preserve" height="37" viewBox="0 0 36.711 36.711" width="37" version="1.1" y="0" x="0px" enable-background="new 0 0 36.711 36.711"><path d="m36.711 34.686c0 1.119-0.907 2.025-2.026 2.025h-9.355v-14.216h4.771l0.715-5.541h-5.486v-3.537c0-1.604 0.445-2.696 2.746-2.696l2.934-0.001v-4.956c-0.508-0.067-2.249-0.219-4.275-0.219-4.23 0-7.127 2.582-7.127 7.323v4.086h-4.784v5.541h4.784v14.216h-17.582c-1.119 0-2.026-0.906-2.026-2.025v-32.66c0-1.119 0.907-2.026 2.026-2.026h32.659c1.119 0 2.026 0.907 2.026 2.026v32.66z" fill="#fff"/></svg><svg xmlns:xlink="http://www.w3.org/1999/xlink" id="inst" xml:space="preserve" height="37" viewBox="0 0 36.663 36.664" width="37" version="1.1" y="37" x="0px" enable-background="new 0 0 36.663 36.664"><path d="m32.305 0h-27.948c-2.407 0-4.357 1.946-4.357 4.349v27.967c0 2.4 1.95 4.348 4.357 4.348h27.947c2.407 0 4.358-1.947 4.358-4.348v-27.967c0.001-2.403-1.95-4.349-4.357-4.349m-5.953 5.729c0-0.632 0.513-1.146 1.146-1.146h3.438c0.632 0 1.145 0.514 1.145 1.146v3.438c0 0.633-0.513 1.146-1.145 1.146h-3.438c-0.633 0-1.146-0.513-1.146-1.146v-3.438zm-7.978 5.612c3.894 0 7.051 3.149 7.051 7.033 0 3.885-3.157 7.034-7.051 7.034s-7.051-3.148-7.051-7.034c0-3.884 3.157-7.033 7.051-7.033m14.852 20.739c0 0.633-0.513 1.146-1.146 1.146h-27.497c-0.633 0-1.146-0.514-1.146-1.146v-17.185h4.583c-0.597 0.858-0.798 2.462-0.798 3.479 0 6.135 5.003 11.127 11.152 11.127s11.153-4.992 11.153-11.127c0-1.018-0.145-2.596-0.885-3.479h4.583v17.185z" fill="#fff"/></svg><svg xmlns:xlink="http://www.w3.org/1999/xlink" id="twitter" xml:space="preserve" height="31" viewBox="0 0 37.453 31.21" width="37" version="1.1" y="74" x="0px" enable-background="new 0 0 37.453 31.21"><path d="m36.421 0.577c-1.486 0.902-3.129 1.558-4.884 1.909-1.397-1.53-3.395-2.486-5.607-2.486-4.24 0-7.682 3.528-7.682 7.879 0 0.618 0.066 1.217 0.198 1.794-6.385-0.329-12.047-3.462-15.839-8.235-0.662 1.168-1.04 2.522-1.04 3.966 0 2.731 1.356 5.144 3.418 6.557-1.257-0.038-2.444-0.396-3.481-0.981v0.096c0 3.819 2.648 7.004 6.167 7.725-0.645 0.186-1.324 0.277-2.025 0.277-0.495 0-0.979-0.047-1.447-0.139 0.979 3.129 3.815 5.408 7.179 5.469-2.63 2.115-5.944 3.375-9.544 3.375-0.619 0-1.232-0.037-1.833-0.109 3.4 2.232 7.441 3.537 11.778 3.537 14.136 0 21.863-12.004 21.863-22.417 0-0.343-0.006-0.685-0.021-1.021 1.502-1.112 2.807-2.498 3.832-4.078-1.376 0.626-2.857 1.05-4.412 1.24 1.588-0.974 2.806-2.518 3.38-4.358" fill="#fff"/></svg><svg xmlns:xlink="http://www.w3.org/1999/xlink" id="vk" xml:space="preserve" height="72" viewBox="0 0 126 72" width="126" version="1.1" y="105" x="0px" enable-background="new 0 0 126 72">		<defs>			<rect id="vk-SVGID_1_" width="126" height="72"/>		</defs>		<clipPath id="vk-SVGID_2_">			<use overflow="visible" xlink:href="#vk-SVGID_1_"/>		</clipPath>		<path fill="#fff" d="m124.52 64.503c-0.152-0.328-0.293-0.597-0.426-0.816-2.172-3.91-6.324-8.711-12.449-14.401l-0.129-0.134-0.066-0.063-0.066-0.066h-0.063c-2.781-2.651-4.543-4.434-5.281-5.344-1.348-1.738-1.652-3.5-0.914-5.281 0.523-1.348 2.477-4.19 5.867-8.538 1.781-2.302 3.195-4.149 4.234-5.539 7.52-9.996 10.777-16.383 9.777-19.164l-0.387-0.649c-0.262-0.39-0.934-0.75-2.02-1.074-1.086-0.327-2.477-0.383-4.172-0.163l-18.764 0.127c-0.301-0.105-0.738-0.099-1.301 0.034-0.566 0.13-0.852 0.195-0.852 0.195l-0.323 0.166-0.258 0.195c-0.219 0.129-0.457 0.354-0.719 0.683-0.258 0.325-0.477 0.707-0.648 1.142-2.047 5.258-4.367 10.145-6.977 14.663-1.609 2.695-3.086 5.031-4.434 7.009-1.348 1.976-2.477 3.434-3.387 4.366-0.914 0.935-1.738 1.685-2.477 2.246-0.742 0.567-1.305 0.806-1.695 0.72-0.391-0.091-0.762-0.177-1.109-0.263-0.609-0.39-1.098-0.922-1.465-1.597-0.371-0.672-0.621-1.52-0.75-2.543-0.129-1.021-0.207-1.899-0.23-2.637-0.02-0.738-0.008-1.785 0.035-3.129 0.043-1.349 0.066-2.263 0.066-2.738 0-1.653 0.031-3.446 0.094-5.379 0.066-1.935 0.121-3.465 0.164-4.594 0.043-1.13 0.066-2.324 0.066-3.587 0-1.258-0.078-2.245-0.23-2.965-0.148-0.715-0.379-1.41-0.684-2.086-0.305-0.672-0.75-1.194-1.336-1.562-0.586-0.371-1.313-0.664-2.18-0.883-2.305-0.521-5.238-0.802-8.8-0.849-8.082-0.086-13.274 0.438-15.579 1.567-0.914 0.476-1.738 1.129-2.476 1.953-0.781 0.957-0.891 1.479-0.328 1.565 2.609 0.392 4.453 1.325 5.543 2.802l0.39 0.784c0.305 0.563 0.61 1.563 0.911 2.996 0.304 1.435 0.5 3.021 0.585 4.758 0.219 3.173 0.219 5.888 0 8.149-0.214 2.257-0.421 4.019-0.617 5.277-0.195 1.262-0.488 2.28-0.879 3.065-0.39 0.782-0.652 1.258-0.785 1.435-0.129 0.172-0.238 0.28-0.324 0.323-0.566 0.22-1.152 0.328-1.762 0.328-0.605 0-1.344-0.304-2.215-0.914-0.867-0.608-1.769-1.444-2.703-2.512-0.933-1.062-1.988-2.55-3.164-4.464-1.172-1.911-2.386-4.168-3.648-6.778l-1.043-1.89c-0.653-1.215-1.543-2.985-2.672-5.313-1.129-2.323-2.129-4.569-2.996-6.745-0.348-0.91-0.871-1.605-1.567-2.087l-0.324-0.194c-0.219-0.172-0.566-0.356-1.043-0.556-0.48-0.194-0.976-0.336-1.5-0.422l-17.858 0.133c-1.824 0-3.063 0.414-3.715 1.238l-0.262 0.392c-0.129 0.218-0.195 0.565-0.195 1.043 0 0.48 0.129 1.065 0.391 1.762 2.609 6.124 5.441 12.034 8.507 17.725 3.063 5.696 5.723 10.278 7.981 13.754 2.262 3.478 4.562 6.758 6.91 9.84 2.348 3.086 3.902 5.063 4.66 5.935 0.762 0.871 1.36 1.519 1.793 1.953l1.629 1.565c1.043 1.043 2.574 2.293 4.598 3.746 2.02 1.457 4.258 2.891 6.711 4.305 2.457 1.41 5.312 2.563 8.574 3.453 3.258 0.892 6.43 1.25 9.516 1.074h7.496c1.52-0.129 2.672-0.609 3.453-1.433l0.258-0.324c0.176-0.262 0.34-0.665 0.488-1.208 0.152-0.542 0.23-1.14 0.23-1.792-0.043-1.868 0.098-3.551 0.422-5.051 0.324-1.496 0.695-2.625 1.109-3.388 0.414-0.762 0.879-1.401 1.402-1.922 0.52-0.522 0.891-0.836 1.109-0.944 0.215-0.11 0.387-0.185 0.52-0.231 1.043-0.347 2.27-0.007 3.684 1.012 1.41 1.024 2.734 2.281 3.977 3.781 1.238 1.5 2.727 3.184 4.461 5.051 1.742 1.867 3.262 3.258 4.563 4.172l1.305 0.781c0.871 0.524 2 1 3.391 1.435 1.391 0.437 2.605 0.547 3.648 0.327l16.688-0.262c1.648 0 2.934-0.272 3.844-0.815 0.914-0.544 1.453-1.142 1.629-1.789 0.176-0.653 0.184-1.392 0.035-2.22-0.16-0.824-0.31-1.402-0.46-1.727z" clip-path="url(#vk-SVGID_2_)"/></svg></svg>
